<?xml version="1.0" encoding="UTF-8"?><svg width="60px" height="60px" version="1.1" xmlns="http://www.w3.org/2000/svg" xmlns:xlink="http://www.w3.org/1999/xlink"><title>椭圆形</title><g id="页面-1" stroke="none" stroke-width="1" fill="none" fill-rule="evenodd"><g id="CA1.2身份证拍照OCR-正反面无照片状态" transform="translate(-158.000000, -168.000000)"><g id="编组-3" transform="translate(101.000000, 143.000000)"><g id="编组-2" transform="translate(57.000000, 25.000000)"><circle id="椭圆形" fill-opacity="0.8" fill="#373B52" cx="30" cy="30" r="30"/><g id="编组" transform="translate(14.000000, 19.000000)" fill="#FFFFFF"><path d="M27.4908706,7.6896 C26.6452235,7.6896 25.9619294,7.00489412 25.9619294,6.16065882 C25.9619294,5.31501176 26.6452235,4.63030588 27.4908706,4.63030588 C28.3365176,4.63030588 29.0198118,5.31501176 29.0198118,6.16065882 C29.0198118,7.00489412 28.3365176,7.6896 27.4908706,7.6896 M18.3708706,19.4863059 C14.6833412,19.4863059 11.6946353,16.4961882 11.6946353,12.8086588 C11.6946353,9.12112941 14.6833412,6.13101176 18.3708706,6.13101176 C22.0598118,6.13101176 25.0499294,9.12112941 25.0499294,12.8086588 C25.0499294,16.4961882 22.0598118,19.4863059 18.3708706,19.4863059 M18.3713869,17.0439529 C16.0325734,17.0439529 14.1369882,15.1474724 14.1369882,12.8086588 C14.1369882,10.4698452 16.0325734,8.57336471 18.3713869,8.57336471 C20.7110959,8.57336471 22.6075765,10.4698452 22.6075765,12.8086588 C22.6075765,15.1474724 20.7110959,17.0439529 18.3713869,17.0439529 M28.1487529,2.41807059 L12.9539294,2.41807059 C12.3412235,2.41807059 11.8725176,2.13007059 11.5816941,1.36065882 C11.3176941,0.659011765 11.0353412,-0.000282352941 10.0866353,-0.000282352941 L6.75487059,-0.000282352941 C6.0024,-0.000282352941 5.52522353,0.602541176 5.28381176,1.36065882 C5.05651765,2.06512941 4.54122353,2.41807059 3.92851765,2.41807059 L3.17181176,2.41807059 C1.41981176,2.41807059 -0.000423529412,3.83689412 -0.000423529412,5.59030588 L-0.000423529412,19.6048941 C-0.000423529412,21.3568941 1.41981176,22.7771294 3.17181176,22.7771294 L28.1487529,22.7771294 C29.9007529,22.7771294 31.3209882,21.3568941 31.3209882,19.6048941 L31.3209882,5.59030588 C31.3209882,3.83689412 29.9007529,2.41807059 28.1487529,2.41807059" id="Fill-1"/></g></g></g></g></g></svg>