<?xml version="1.0" encoding="UTF-8"?><svg width="28px" height="28px" version="1.1" xmlns="http://www.w3.org/2000/svg" xmlns:xlink="http://www.w3.org/1999/xlink"><title>形状 2</title><g id="页面-1" stroke="none" stroke-width="1" fill="none" fill-rule="evenodd"><g id="CA1.2.4正面拍照完成" transform="translate(-174.000000, -171.000000)" fill="#FFFFFF" fill-rule="nonzero"><g id="编组-3" transform="translate(101.000000, 143.000000)"><g id="形状-2" transform="translate(73.000000, 28.000000)"><path d="M14,28 C6.2685,28 0,21.7315 0,14 C0,6.2685 6.2685,0 14,0 C21.7315,0 28,6.2685 28,14 C28,21.7315 21.7315,28 14,28 Z M14,2.33333332 C7.5565,2.33333332 2.33333332,7.5565 2.33333332,14 C2.33333332,20.4435 7.5565,25.6666667 14,25.6666667 C20.4435,25.6666667 25.6666667,20.4435 25.6666667,14 C25.6666667,7.5565 20.4435,2.33333332 14,2.33333332 Z M13.7165,19.4331667 C13.4978697,19.6521691 13.2011199,19.7752347 12.8916667,19.7752347 C12.5822135,19.7752347 12.2854637,19.6521691 12.0668333,19.4331667 C11.9834102,19.3433447 11.9152332,19.2404881 11.865,19.1286667 L7.53083332,14.665 C7.23347957,14.3679607 7.11888234,13.9339394 7.23084267,13.5288264 C7.342803,13.1237135 7.66401291,12.8101354 8.07170048,12.7079471 C8.47938805,12.6057588 8.91052879,12.7307575 9.20033332,13.0351667 L12.9523333,16.898 L20.1168333,9.7335 C20.5746087,9.29136585 21.3022655,9.29768904 21.7522882,9.74771177 C22.202311,10.1977345 22.2086341,10.9253913 21.7665,11.3831667 L13.7165,19.4331667 Z" id="形状"/></g></g></g></g></svg>